<?xml version="1.0" encoding="UTF-8"?>
<svg id="Capa_2" data-name="Capa 2" xmlns="http://www.w3.org/2000/svg" viewBox="0 0 451.88 459.33">
  <defs>
    <style>
      .cls-1 {
        fill: #d36666;
      }

      .cls-1, .cls-2 {
        stroke-width: 0px;
      }

      .cls-2 {
        fill: #fff;
      }
    </style>
  </defs>
  <g id="CHAT">
    <g>
      <polygon class="cls-2" points="451.63 205.6 451.63 340.71 424.63 340.71 424.63 367.82 389.3 367.82 388.41 367.82 388.41 331.6 415.97 331.6 415.97 214.93 388.41 214.93 388.41 187.37 359.85 187.37 359.85 150.93 361.3 150.37 396.85 150.37 396.85 177.6 425.74 177.6 425.74 205.6 451.63 205.6"/>
      <path class="cls-1" d="M415.97,214.93v116.67h-27.56v36.22h-27.11v28.05h-52.77l.11,35.5h-99.33v-35.34h26.89v-27.16l-90.11.05v-.15h.45v-28.57h-28.57v-134.6h28v-27.45h35.33v-27.22h178.55v36.44h28.56v27.56h27.56ZM370.19,252.3v-19.9h-9.11v-6.89h-180.56v6.89h-8.89v19.9h8.89v6.88h180.56v-6.88h9.11ZM306.89,306.59l-.07-14.41h-8.97v-6.78h-117.33v6.78h-8.89v14.06h8.89v7.38l117.33-.08v-6.95h9.04Z"/>
      <polygon class="cls-2" points="389.3 367.82 389.3 395.82 361.42 395.87 361.3 395.87 361.3 367.82 388.41 367.82 389.3 367.82"/>
      <polygon class="cls-2" points="370.19 232.4 370.19 252.3 361.08 252.3 361.08 259.18 180.52 259.18 180.52 252.3 171.63 252.3 171.63 232.4 180.52 232.4 180.52 225.51 361.08 225.51 361.08 232.4 370.19 232.4"/>
      <polygon class="cls-2" points="361.42 395.87 361.42 431.37 308.64 431.37 308.53 395.87 361.3 395.87 361.42 395.87"/>
      <polygon class="cls-2" points="361.3 126.04 361.3 150.37 359.85 150.93 181.3 150.93 181.3 178.15 145.97 178.15 143.97 177.6 143.97 150.37 171.97 150.37 171.97 123.37 332.85 123.37 332.85 90.59 306.3 90.59 306.3 63.33 333.56 63.33 333.56 87.37 361.3 87.37 361.3 123.37 361.3 126.04"/>
      <polygon class="cls-1" points="332.85 90.59 332.85 123.37 171.97 123.37 171.97 150.37 143.97 150.37 143.97 177.6 117.97 177.6 117.97 205.6 90.19 205.6 90.19 243.51 63.34 243.51 63.34 217.33 27.19 217.33 27.19 90.59 27.19 90.14 54.85 90.14 54.85 63.33 90.08 63.33 90.08 28.11 90.59 26.92 270.74 26.92 270.74 62.48 306.3 62.48 306.3 63.33 306.3 90.59 332.85 90.59"/>
      <polygon class="cls-2" points="308.64 431.37 308.64 459.09 179.68 459.09 179.68 396.03 146.09 396.03 146.09 368.92 236.2 368.87 236.2 396.03 209.31 396.03 209.31 431.37 308.64 431.37"/>
      <polygon class="cls-2" points="306.82 292.18 306.89 306.59 297.85 306.59 297.85 313.54 180.52 313.62 180.52 306.24 171.63 306.24 171.63 292.18 180.52 292.18 180.52 285.4 297.85 285.4 297.85 292.18 306.82 292.18"/>
      <rect class="cls-2" x="270.74" y="26.92" width="35.56" height="35.56"/>
      <rect class="cls-2" x="90.59" y=".25" width="180.15" height="26.67"/>
      <polygon class="cls-2" points="146.54 340.2 146.54 368.77 146.09 368.77 117.97 368.77 117.97 340.6 117.97 340.2 146.54 340.2"/>
      <polygon class="cls-2" points="145.97 178.15 145.97 205.6 117.97 205.6 117.97 177.6 143.97 177.6 145.97 178.15"/>
      <polygon class="cls-2" points="117.97 340.2 117.97 340.6 90.19 340.6 90.19 278.96 54.74 278.96 54.74 253.48 27.19 253.48 27.19 218.33 27.19 217.33 63.34 217.33 63.34 243.51 90.19 243.51 90.19 205.6 117.97 205.6 117.97 340.2"/>
      <polygon class="cls-2" points="90.08 28.11 90.08 63.33 54.85 63.33 54.85 62.48 54.85 28.11 90.08 28.11"/>
      <polygon class="cls-2" points="54.85 63.33 54.85 90.14 27.19 90.14 27.19 62.48 54.85 62.48 54.85 63.33"/>
      <polygon class="cls-2" points="27.19 217.33 27.19 218.33 .25 218.33 .25 90.59 27.19 90.59 27.19 217.33"/>
    </g>
  </g>
</svg>