<?xml version="1.0" encoding="UTF-8"?>
<svg id="Capa_2" data-name="Capa 2" xmlns="http://www.w3.org/2000/svg" viewBox="0 0 1713.58 464">
  <defs>
    <style>
      .cls-1 {
        stroke: #fff;
        stroke-linecap: round;
        stroke-linejoin: round;
        stroke-width: .5px;
      }

      .cls-1, .cls-2 {
        fill: #fff;
      }

      .cls-2 {
        stroke-width: 0px;
      }
    </style>
  </defs>
  <g id="LIKE">
    <g id="Capa_2-2" data-name="Capa 2">
      <polygon class="cls-2" points="311.91 33.78 312.07 193.89 430.07 194 430.07 160.33 337.22 160.33 337.22 33.78 311.91 33.78"/>
      <polygon class="cls-2" points="430.07 194 455.41 194 455.41 371.46 430.07 371.44 430.07 329.04 370.96 329.04 370.96 303.78 430.07 303.78 430.07 261.52 370.96 261.52 371.07 236.33 430.07 236.22 430.07 194"/>
      <polygon class="cls-2" points="370.96 371.44 430.07 371.44 430.07 430.22 396.37 430.22 396.41 405 370.96 404.89 370.96 371.44"/>
      <rect class="cls-2" x="160.19" y="430.22" width="236.18" height="33.78"/>
      <path class="cls-2" d="M160.19,252.81v-33.48H0v210.89h160.19v-25.11h-33.81l-.07-152.3h33.89ZM101.04,405.11H25.19v-152.3h75.85v152.3Z"/>
      <rect class="cls-2" x="160.19" y="194" width="25.33" height="25.33"/>
      <polygon class="cls-2" points="219.19 194 185.52 194 185.52 134.96 219.19 135.04 219.19 194"/>
      <polygon class="cls-2" points="312.01 33.78 312.01 0 219.19 0 219.19 135.04 244.44 134.96 244.44 33.78 312.01 33.78"/>
    </g>
  </g>
  <g id="CHAT">
    <polygon class="cls-1" points="1578.08 324.13 1586.96 324.13 1586.96 331.51 1704.3 331.42 1704.3 324.47 1713.33 324.47 1713.26 310.06 1704.3 310.06 1704.3 303.29 1586.96 303.29 1586.96 310.06 1578.08 310.06 1578.08 324.13"/>
  </g>
</svg>