<svg width="57" height="56" viewBox="0 0 57 56" fill="none" xmlns="http://www.w3.org/2000/svg">
<path d="M26.731 0.0864258H38.731V3.08643H42.731V19.0864H52.731V22.0864H56.731V45.0864H52.731V52.0864H49.731V55.0864H19.731V52.0864H0.730957V26.0864H19.731V22.0864H23.731V15.0864H26.731V0.0864258ZM31.731 4.08643V16.0864H27.731V23.0864H24.731V27.0864H20.731V30.0864H17.731V47.0864H20.731V51.0864H48.731V48.0864H44.731V44.0864H52.731V40.0864H44.731V35.0864H52.731V32.0864L45.731 31.0864L44.731 27.0864H52.731V23.0864H37.731V4.08643H31.731ZM5.73096 30.0864V47.0864H12.731V30.0864H5.73096Z" fill="white"/>
</svg>
