<?xml version="1.0" encoding="UTF-8"?>
<svg id="Capa_2" data-name="Capa 2" xmlns="http://www.w3.org/2000/svg" viewBox="0 0 442.13 451.67">
  <defs>
    <style>
      .cls-1 {
        fill: #d36666;
      }

      .cls-1, .cls-2 {
        stroke-width: 0px;
      }

      .cls-2 {
        fill: #fff;
      }
    </style>
  </defs>
  <g id="confi">
    <g>
      <path class="cls-1" d="M413.43,198.23v62.23h-53.63v82.07h27.78v53.78h-45.11v-26.89h-89.33v54h-64v-54h-90.22v26.89h-44.89v-53.78h26.22v-82.07H25.58v-62.23h54.67v-89.48h-26.22v-45.63h45.33v26.52h63.56v.15h26.51v-53.33h62.23v53.33h80.59v-26.67h55.11v45.63h-27.56v89.48h53.63ZM324.55,279.71v-98.96h-27.12v-27.26h-26.88v-27.85h-99.49v28.04h-26.81v27.07h-26.89v98.96h26.89v26.97h26.96v27.41h99.41v-27.34h26.81v-27.04h27.12Z"/>
      <polygon class="cls-2" points="441.88 198.23 441.88 260.46 415.36 260.46 413.43 260.46 413.43 198.23 441.88 198.23"/>
      <rect class="cls-2" x="387.58" y="342.53" width="27.78" height="53.78"/>
      <polygon class="cls-2" points="415.36 260.46 415.36 288.75 387.58 288.75 387.58 342.53 359.8 342.53 359.8 288.75 359.8 260.46 387.58 260.46 413.43 260.46 415.36 260.46"/>
      <polygon class="cls-2" points="413.43 170.97 413.43 198.23 387.36 198.23 377.29 198.23 359.8 198.23 359.8 108.75 387.36 108.75 387.36 170.97 413.43 170.97"/>
      <rect class="cls-2" x="387.36" y="63.12" width="26.07" height="45.63"/>
      <rect class="cls-2" x="342.47" y="396.31" width="44.89" height="27.11"/>
      <rect class="cls-2" x="332.25" y="28.16" width="55.11" height="34.96"/>
      <polygon class="cls-2" points="342.47 369.42 342.47 396.31 279.36 396.31 279.36 423.42 253.14 423.42 253.14 396.31 253.14 377.2 253.14 369.42 342.47 369.42"/>
      <polygon class="cls-2" points="332.25 63.12 332.25 89.79 278.92 89.79 262.32 89.79 251.66 89.79 251.66 36.46 278.92 36.46 278.92 63.12 332.25 63.12"/>
      <rect class="cls-2" x="297.43" y="180.75" width="27.12" height="98.96"/>
      <rect class="cls-2" x="270.62" y="279.94" width="26.81" height="26.81"/>
      <rect class="cls-2" x="270.55" y="153.49" width="26.88" height="27.26"/>
      <rect class="cls-2" x="171.21" y="306.75" width="99.41" height="27.34"/>
      <rect class="cls-2" x="171.06" y="125.64" width="99.49" height="26.96"/>
      <rect class="cls-2" x="189.14" y="423.42" width="64" height="28"/>
      <rect class="cls-2" x="189.43" y=".25" width="62.23" height="36.21"/>
      <polygon class="cls-2" points="189.43 36.46 189.43 89.79 162.92 89.79 162.92 89.64 99.36 89.64 99.36 63.12 162.92 63.12 162.92 36.46 189.43 36.46"/>
      <polygon class="cls-2" points="189.14 369.42 189.14 422.97 162.03 422.97 162.03 396.2 98.92 396.2 98.92 369.42 162.03 369.42 167.8 369.42 189.14 369.42"/>
      <rect class="cls-2" x="144.25" y="279.71" width="26.96" height="26.97"/>
      <rect class="cls-2" x="144.25" y="153.68" width="26.81" height="26.81"/>
      <rect class="cls-2" x="117.36" y="180.75" width="26.89" height="98.96"/>
      <rect class="cls-2" x="54.03" y="28.16" width="45.33" height="34.96"/>
      <rect class="cls-2" x="54.03" y="396.31" width="44.89" height="27.11"/>
      <polygon class="cls-2" points="80.25 260.46 80.25 342.53 54.03 342.53 54.03 288.75 25.58 288.75 25.58 260.46 54.03 260.46 68.69 260.46 80.25 260.46"/>
      <polygon class="cls-2" points="80.25 108.75 80.25 198.23 58.03 198.23 54.03 198.23 25.58 198.23 25.58 170.97 54.03 170.97 54.03 108.75 80.25 108.75"/>
      <rect class="cls-2" x="27.36" y="342.53" width="26.67" height="53.78"/>
      <rect class="cls-2" x="27.36" y="63.12" width="26.67" height="45.63"/>
      <rect class="cls-2" x=".25" y="198.23" width="25.33" height="62.23"/>
    </g>
  </g>
</svg>