<?xml version="1.0" encoding="UTF-8"?>
<svg id="Capa_2" data-name="Capa 2" xmlns="http://www.w3.org/2000/svg" viewBox="0 0 380.94 428.39">
  <defs>
    <style>
      .cls-1 {
        fill: #d36666;
      }

      .cls-1, .cls-2 {
        stroke-width: 0px;
      }

      .cls-2 {
        fill: #fff;
      }
    </style>
  </defs>
  <g id="NOTIS">
    <g>
      <path class="cls-1" d="M275.7,261.7h35v36.16h35v62.28H35.25v-55.81h35v-36.47h35V66.58h170.45v195.12ZM275.7,262.25h-35v35h35v-35Z"/>
      <polygon class="cls-2" points="380.7 360.14 380.7 395.14 345.7 395.14 265.59 395.14 265.59 428.14 115.37 428.14 115.37 395.14 .25 395.14 .25 363.75 .25 360.14 .25 304.64 35.25 304.64 35.25 360.14 345.7 360.14 345.7 297.86 345.7 297.81 380.7 297.81 380.7 360.14"/>
      <polygon class="cls-2" points="345.7 297.81 345.7 297.86 310.7 297.86 310.7 261.7 310.7 261.64 345.7 261.64 345.7 297.81"/>
      <polygon class="cls-2" points="310.7 261.64 310.7 261.7 275.7 261.7 275.7 66.58 310.7 66.58 310.7 261.64"/>
      <rect class="cls-2" x="240.7" y="262.25" width="35" height="35"/>
      <polygon class="cls-2" points="275.7 31.58 275.7 66.58 105.25 66.58 105.25 31.58 162.03 31.58 162.03 .25 218.92 .25 218.92 31.58 275.7 31.58"/>
      <rect class="cls-2" x="70.25" y="66.58" width="35" height="201.28"/>
      <rect class="cls-2" x="35.25" y="268.06" width="35" height="36.27"/>
    </g>
  </g>
</svg>