<?xml version="1.0" encoding="UTF-8"?>
<svg id="Capa_2" data-name="Capa 2" xmlns="http://www.w3.org/2000/svg" viewBox="0 0 369.39 450.93">
  <defs>
    <style>
      .cls-1 {
        fill: #d36666;
      }

      .cls-1, .cls-2 {
        stroke-width: 0px;
      }

      .cls-2 {
        fill: #fff;
      }
    </style>
  </defs>
  <g id="USER">
    <g>
      <polygon class="cls-1" points="343.22 387.86 343.22 423.71 27.51 423.71 27.51 387.86 63.66 387.86 63.66 351.71 90.33 351.71 90.33 325.05 117.59 325.05 144.55 325.05 144.55 298.08 117.59 298.08 117.59 270.82 90.33 270.82 90.33 270.53 90.33 234.53 63.07 234.53 63.07 90.53 90.18 90.53 90.18 63.42 90.33 63.12 117.88 63.12 117.88 35.56 260.7 35.56 260.7 63.42 288.55 63.42 288.55 90.53 316.55 90.53 316.55 234.53 288.55 234.53 288.55 270.82 261.88 270.82 261.88 297.34 225.44 297.34 225.44 325.05 261.88 325.05 275.51 325.05 288.55 325.05 288.55 351.71 316.55 351.71 316.55 352.01 316.55 387.86 343.22 387.86"/>
      <polygon class="cls-2" points="369.14 387.86 369.14 450.68 343.22 450.68 27.51 450.68 .25 450.68 .25 387.86 27.51 387.86 27.51 423.71 343.22 423.71 343.22 387.86 369.14 387.86"/>
      <rect class="cls-2" x="316.55" y="352.01" width="26.67" height="35.85"/>
      <rect class="cls-2" x="316.55" y="90.53" width="26.67" height="144"/>
      <rect class="cls-2" x="288.55" y="325.05" width="28" height="26.66"/>
      <rect class="cls-2" x="288.55" y="234.53" width="28" height="36.29"/>
      <rect class="cls-2" x="288.55" y="63.42" width="28" height="27.11"/>
      <polygon class="cls-2" points="288.55 270.82 288.55 325.05 275.51 325.05 261.88 325.05 225.44 325.05 225.44 297.34 261.88 297.34 261.88 270.82 288.55 270.82"/>
      <rect class="cls-2" x="260.7" y="35.56" width="27.85" height="27.86"/>
      <rect class="cls-2" x="117.88" y=".25" width="142.82" height="35.31"/>
      <polygon class="cls-2" points="144.55 298.08 144.55 325.05 117.59 325.05 90.33 325.05 90.33 270.82 117.59 270.82 117.59 298.08 144.55 298.08"/>
      <rect class="cls-2" x="90.33" y="35.56" width="27.55" height="27.56"/>
      <rect class="cls-2" x="63.66" y="325.05" width="26.67" height="26.66"/>
      <rect class="cls-2" x="63.07" y="234.53" width="27.26" height="36"/>
      <rect class="cls-2" x="63.07" y="63.42" width="27.11" height="27.11"/>
      <rect class="cls-2" x="27.51" y="351.71" width="36.15" height="36.15"/>
      <rect class="cls-2" x="36.11" y="90.53" width="26.96" height="144"/>
    </g>
  </g>
</svg>